<svg width="50" height="50" viewBox="0 0 50 50" fill="none" xmlns="http://www.w3.org/2000/svg">
<path d="M22.9168 18.75H27.0835V12.5H33.3335V8.33334H27.0835V2.08334H22.9168V8.33334H16.6668V12.5H22.9168V18.75ZM14.5835 37.5C12.2918 37.5 10.4377 39.375 10.4377 41.6667C10.4377 43.9583 12.2918 45.8333 14.5835 45.8333C16.8752 45.8333 18.7502 43.9583 18.7502 41.6667C18.7502 39.375 16.8752 37.5 14.5835 37.5ZM35.4168 37.5C33.1252 37.5 31.271 39.375 31.271 41.6667C31.271 43.9583 33.1252 45.8333 35.4168 45.8333C37.7085 45.8333 39.5835 43.9583 39.5835 41.6667C39.5835 39.375 37.7085 37.5 35.4168 37.5ZM14.9377 30.7292L15.0002 30.4792L16.8752 27.0833H32.396C33.9585 27.0833 35.3335 26.2292 36.0418 24.9375L44.0835 10.3333L40.4585 8.33334H40.4377L38.146 12.5L32.396 22.9167H17.771L17.5002 22.3542L12.8335 12.5L10.8543 8.33334L8.896 4.16668H2.0835V8.33334H6.25016L13.7502 24.1458L10.9377 29.25C10.6043 29.8333 10.4168 30.5208 10.4168 31.25C10.4168 33.5417 12.2918 35.4167 14.5835 35.4167H39.5835V31.25H15.4585C15.1877 31.25 14.9377 31.0208 14.9377 30.7292Z" fill="white"/>
</svg>
