<svg xmlns="http://www.w3.org/2000/svg" xmlns:xlink="http://www.w3.org/1999/xlink" width="8" height="8" preserveAspectRatio="xMidYMid meet" viewBox="0 0 8 8" style="-ms-transform: rotate(360deg); -webkit-transform: rotate(360deg); transform: rotate(360deg);"><path d="M.34 1A.506.506 0 0 0 .5 2H2l.09.25l.41 1.25l.41 1.25c.04.13.21.25.34.25h3.5c.14 0 .3-.12.34-.25l.81-2.5c.04-.13-.02-.25-.16-.25H3.3l-.38-.72A.5.5 0 0 0 2.48 1h-2a.5.5 0 0 0-.09 0a.5.5 0 0 0-.06 0zM3.5 6c-.28 0-.5.22-.5.5s.22.5.5.5s.5-.22.5-.5s-.22-.5-.5-.5zm3 0c-.28 0-.5.22-.5.5s.22.5.5.5s.5-.22.5-.5s-.22-.5-.5-.5z" fill="#626262"/><rect x="0" y="0" width="8" height="8" fill="rgba(0, 0, 0, 0)" /></svg>